<svg id="Group_964" data-name="Group 964" xmlns="http://www.w3.org/2000/svg" xmlns:xlink="http://www.w3.org/1999/xlink" width="206" height="71.954" viewBox="0 0 206 71.954">
  <defs>
    <clipPath id="clip-path">
      <rect id="Rectangle_1005" data-name="Rectangle 1005" width="206" height="71.954" fill="#f0e8d9"/>
    </clipPath>
  </defs>
  <g id="Group_959" data-name="Group 959">
    <g id="Group_958" data-name="Group 958" clip-path="url(#clip-path)">
      <path id="Path_556" data-name="Path 556" d="M51.9,14.76V44.308a25.322,25.322,0,0,1-7.268,17.81v-3.96a10.727,10.727,0,0,0-5.235-9.208,11.289,11.289,0,0,0-4.56-21.618H11.12V63.408a25.31,25.31,0,0,1-8.639-19.1V14.759l24.7-12ZM13.6,65.315v-15.4H33.9a8.252,8.252,0,0,1,8.242,8.242v6.165a24.288,24.288,0,0,1-28.545.992M33.9,47.434H13.6V29.813H34.833a8.811,8.811,0,1,1,0,17.621ZM0,13.207v31.1A27.451,27.451,0,0,0,27.188,71.954,27.451,27.451,0,0,0,54.377,44.308v-31.1L27.177,0Z" fill="#f0e8d9"/>
      <path id="Path_557" data-name="Path 557" d="M94.379,41.039a3.118,3.118,0,1,1-3.118,3.118,3.122,3.122,0,0,1,3.118-3.118m0,8.718a5.6,5.6,0,1,0-5.6-5.6,5.606,5.606,0,0,0,5.6,5.6" transform="translate(-67.191 -29.182)" fill="#f0e8d9"/>
    </g>
  </g>
  <path id="Path_558" data-name="Path 558" d="M291.373,113.356l6.266-10.966h-2.416l-5.067,9.049h-.033l-5.1-9.049h-2.65l6.283,10.966Z" transform="translate(-213.708 -77.492)" fill="#f0e8d9"/>
  <rect id="Rectangle_1006" data-name="Rectangle 1006" width="2.133" height="8.233" transform="translate(85.23 27.632)" fill="#f0e8d9"/>
  <rect id="Rectangle_1007" data-name="Rectangle 1007" width="2.25" height="1.933" transform="translate(85.18 24.515)" fill="#f0e8d9"/>
  <rect id="Rectangle_1008" data-name="Rectangle 1008" width="2.133" height="11.666" transform="translate(89.411 24.198)" fill="#f0e8d9"/>
  <g id="Group_961" data-name="Group 961">
    <g id="Group_960" data-name="Group 960" clip-path="url(#clip-path)">
      <path id="Path_559" data-name="Path 559" d="M391.967,117.96c0,.967-1.183,2.033-3.816,2.033-2.1,0-2.567-.617-2.567-1.167,0-.784.683-.917,1.933-.917h4.45Zm-4.95-1.317c-2.066,0-3.383.667-3.383,2.267,0,1.3,1.1,2.583,4.1,2.583,2.767,0,3.95-.817,4.316-2.133h.017c-.017.566-.05,1.416-.1,1.983H394.1v-4.666c0-2.3-1.766-3.733-5.266-3.733-3.433,0-4.933,1.116-4.933,2.716a2.718,2.718,0,0,0,.017.3h2.033a1.029,1.029,0,0,1-.017-.2c0-.7.7-1.3,2.85-1.3,2.266,0,3.183.666,3.183,2.016v.167Z" transform="translate(-290.344 -85.479)" fill="#f0e8d9"/>
      <path id="Path_560" data-name="Path 560" d="M297.48,175.325h-6.919v-4.817h6.257c3.188,0,4.369.945,4.369,2.408,0,1.441-1.133,2.409-3.707,2.409m6.753-2.857c0-2.763-1.984-4.533-7.155-4.533H287.3v15.537h3.259v-6h7.225c2.243,0,3.117.874,3.117,2.692v3.305h3.235v-3.305c0-1.937-.59-3.495-2.81-3.967v-.047a3.606,3.606,0,0,0,2.9-3.684" transform="translate(-217.438 -127.097)" fill="#f0e8d9"/>
      <path id="Path_561" data-name="Path 561" d="M378.209,187.847h-9.185c.4-1.818,1.818-2.81,4.746-2.81,3.188,0,4.439,1.181,4.439,2.739Zm-4.557-4.959c-4.912,0-7.769,2.432-7.769,6.163,0,2.9,1.795,5.974,7.958,5.974,4.982,0,6.99-2.007,7.131-4.038h-2.763c-.189.968-1.275,1.889-4.368,1.889-3.566,0-4.7-1.44-4.912-3.211h12.043v-.944c0-3.613-2.338-5.833-7.32-5.833" transform="translate(-276.91 -138.414)" fill="#f0e8d9"/>
      <path id="Path_562" data-name="Path 562" d="M446.225,192.664c-3.613,0-5.384-1.676-5.384-3.282v-.236c.047-2.173,1.984-3.9,5.36-3.9,3.282,0,4.864,1.511,4.864,3.589,0,2.573-1.653,3.825-4.841,3.825m.449-9.776c-3.188,0-5.148,1.133-5.856,3.188h-.024l.047-2.952h-3.022v16.341h3.022v-4.676c0-.567-.071-1.748-.118-2.48h.024c.874,1.724,2.574,2.716,6.021,2.716,4.463,0,7.3-2.173,7.3-6.258,0-3.495-2.574-5.879-7.391-5.879" transform="translate(-331.353 -138.414)" fill="#f0e8d9"/>
      <path id="Path_563" data-name="Path 563" d="M526.326,188.628c0,2.951-2.55,4.652-5.549,4.652-3.329,0-4.416-1.322-4.416-3.471v-5.95h-3.022v6.588c0,2.81,1.913,5.313,6.446,5.313,3.778,0,5.88-1.228,6.588-3.849h.047c0,1.2-.047,2.763-.095,3.613h3.022V183.858h-3.022Z" transform="translate(-388.508 -139.149)" fill="#f0e8d9"/>
      <path id="Path_564" data-name="Path 564" d="M598.994,178.259c-3.613,0-5.384-1.676-5.384-3.306v-.142c0-2.243,2.125-3.967,5.407-3.967,3.4,0,4.793,1.629,4.793,3.565,0,2.385-1.511,3.849-4.817,3.849m.5-9.776c-3.636,0-5.289,1.393-5.879,3.14h-.047c.024-.449.047-1.3.047-1.865v-5.9h-3.023v16.529h3.023c-.047-.661-.118-1.748-.118-2.574h.024c.472,1.417,2.1,2.81,6.139,2.81,4.463,0,7.178-2.409,7.178-6.258,0-3.423-2.479-5.879-7.344-5.879" transform="translate(-446.972 -124.01)" fill="#f0e8d9"/>
    </g>
  </g>
  <rect id="Rectangle_1010" data-name="Rectangle 1010" width="3.022" height="16.529" transform="translate(162.19 39.845)" fill="#f0e8d9"/>
  <rect id="Rectangle_1011" data-name="Rectangle 1011" width="3.188" height="2.739" transform="translate(167.935 40.294)" fill="#f0e8d9"/>
  <rect id="Rectangle_1012" data-name="Rectangle 1012" width="3.022" height="11.665" transform="translate(168.006 44.709)" fill="#f0e8d9"/>
  <path id="Path_565" data-name="Path 565" d="M731.053,168.719H726.8L717.9,175h-.024V163.855h-3.023v16.529h3.023v-2.668l3.259-2.173,5.833,4.841h4.486L723.4,173.89Z" transform="translate(-541.021 -124.01)" fill="#f0e8d9"/>
  <g id="Group_963" data-name="Group 963">
    <g id="Group_962" data-name="Group 962" clip-path="url(#clip-path)">
      <path id="Path_566" data-name="Path 566" d="M797.956,190c0,1.369-1.677,2.881-5.407,2.881-2.975,0-3.636-.873-3.636-1.653,0-1.11.968-1.3,2.739-1.3h6.3Zm-4.439-7.107c-4.864,0-6.99,1.582-6.99,3.848a3.81,3.81,0,0,0,.024.426h2.881a1.479,1.479,0,0,1-.024-.284c0-.992.992-1.842,4.038-1.842,3.211,0,4.51.944,4.51,2.857v.236h-7.013c-2.928,0-4.794.944-4.794,3.212,0,1.842,1.559,3.66,5.809,3.66,3.92,0,5.6-1.157,6.116-3.023h.024c-.024.8-.071,2.007-.141,2.81h3.022v-6.612c0-3.258-2.5-5.289-7.462-5.289" transform="translate(-594.978 -138.414)" fill="#f0e8d9"/>
    </g>
  </g>
</svg>
